<?xml version="1.0" encoding="UTF-8"?>

<svg xmlns="http://www.w3.org/2000/svg" version="1.2" baseProfile="tiny" xml:space="preserve" style="shape-rendering:geometricPrecision; fill-rule:evenodd;" width="6.47mm" height="4.72mm" viewBox="-3.71 -4.06 6.47 4.72">
  <title>BOYBAR10</title>
  <desc>barrel buoy - red, paper-chart</desc>
  <metadata>
    <iho:S100SVG xmlns:iho="http://www.iho.int/SVGMetadata/5.2">
      <iho:Description iho:publisher="IHB" iho:creationDate="2023-01-23" iho:source="7Cs" iho:format="S100SVG" iho:version="0.1"/>
    </iho:S100SVG>
  </metadata>
  <rect style="stroke:black;stroke-width:0.32;display:none;" fill="none" x="-3.55" y="-3.9" height="4.4" width="6.15"/>
  <rect style="stroke:blue;stroke-width:0.32;display:none;" fill="none" x="-3.55" y="-3.9" height="4.4" width="6.15"/>
  <path d=" M -3,0 L -3,-1.55 L -2.9,-2.2 L -2.55,-2.9 L -2.1,-3.35 L -1.65,-3.6 L -1.1,-3.8 L -0.65,-3.9 L -0.2,-3.9 L 0.3,-3.8 L 0.9,-3.45 L 1.35,-3.15 L 1.6,-2.85 L 1.85,-2.35 L 2,-1.9 L 2.05,-1.55 L 2.05,0 Z" style="fill:#EA5471;"/>
  <circle style="fill:none;stroke:#000000;" stroke-width="0.32"  cx="0" cy="0" r="0.5"/>
  <path d=" M -3,0 L -3,-1.55 L -2.9,-2.2 L -2.55,-2.9" style="stroke-linecap:round;stroke-linejoin:round;fill:none;stroke:#000000;" stroke-width="0.32" />
  <path d=" M -2.1,-3.35 L -1.65,-3.6 L -1.1,-3.8 L -0.65,-3.9 L -0.2,-3.9 L 0.3,-3.8 L 0.9,-3.45 L 1.35,-3.15 L 1.6,-2.85 L 1.85,-2.35 L 2,-1.9 L 2.05,-1.55 L 2.05,0" style="stroke-linecap:round;stroke-linejoin:round;fill:none;stroke:#000000;" stroke-width="0.32" />
  <path d=" M -2.25,-3.25 L -1.9,-2.7 L -1.55,-2.2 L -1.35,-1.65 L -1.2,-0.9 L -1.1,-0.45 L -1.1,0" style="stroke-linecap:round;stroke-linejoin:round;fill:none;stroke:#000000;" stroke-width="0.32" />
  <path d=" M 0.45,0 L 2.6,0" style="stroke-linecap:round;stroke-linejoin:round;fill:none;stroke:#000000;" stroke-width="0.32" />
  <path d=" M -2.55,-2.9 L -2.1,-3.35" style="stroke-linecap:round;stroke-linejoin:round;fill:none;stroke:#000000;" stroke-width="0.32" />
  <path d=" M -0.55,0 L -3.55,0" style="stroke-linecap:round;stroke-linejoin:round;fill:none;stroke:#000000;" stroke-width="0.32" />
  <circle style="fill:#C9EDFF;" cx="0" cy="0" r="0.4"/>
  <circle style="stroke:red;stroke-width:0.64;display:none;" fill="none" cx="0" cy="0" r="0.2"/>
</svg>
