<?xml version="1.0" encoding="UTF-8"?>

<svg xmlns="http://www.w3.org/2000/svg" version="1.2" baseProfile="tiny" xml:space="preserve" style="shape-rendering:geometricPrecision; fill-rule:evenodd;" width="7.53mm" height="4.75mm" viewBox="-2.19 -2.42 7.53 4.75">
  <title>BOYDEF03</title>
  <desc>default symbol for buoy, simplified</desc>
  <metadata>
    <iho:S100SVG xmlns:iho="http://www.iho.int/SVGMetadata/5.2">
      <iho:Description iho:publisher="IHB" iho:creationDate="2014-06-09" iho:source="S52Preslib4.0" iho:format="S100SVG" iho:version="0.1"/>
    </iho:S100SVG>
  </metadata>
  <rect style="stroke:black;stroke-width:0.32;display:none;" fill="none" x="-2.03" y="-2.26" height="4.43" width="7.21"/>
  <rect style="stroke:blue;stroke-width:0.32;display:none;" fill="none" x="-2.03" y="-2.26" height="4.43" width="7.21"/>
  <path d=" M 2.98,-1.3 L 3.11,-1.58 L 3.24,-1.83 L 3.41,-2 L 3.58,-2.17 L 3.84,-2.26 L 4.07,-2.24 L 4.37,-2.15 L 4.65,-2.09 L 4.88,-1.75 L 5.06,-1.56 L 5.18,-1.34 L 5.18,-1.09 L 5.06,-0.85 L 4.93,-0.64 L 4.73,-0.4 L 4.5,-0.15 L 4.29,0.11 L 4.16,0.3 L 4.05,0.47 L 4.03,0.69 L 4.03,0.92 L 4.03,1.09 L 4.05,1.31 L 4.05,1.33" style="stroke-linecap:round;stroke-linejoin:round;fill:none;stroke:#C045D1;" stroke-width="0.32" />
  <path d=" M 3.84,2.17 L 4.37,2.17" style="stroke-linecap:round;stroke-linejoin:round;fill:none;stroke:#C045D1;" stroke-width="0.64" />
  <circle style="fill:#4C5B63;" cx="0" cy="0" r="2.03"/>
  <circle style="fill:none;stroke:#000000;" stroke-width="0.32"  cx="0" cy="0" r="2.03"/>
  <circle style="fill:#000000;" cx="0" cy="0" r="0.15"/>
  <circle style="stroke:red;stroke-width:0.64;display:none;" fill="none" cx="0" cy="0" r="1"/>
</svg>
