<?xml version="1.0" encoding="UTF-8"?>

<svg xmlns="http://www.w3.org/2000/svg" version="1.2" baseProfile="tiny" xml:space="preserve" style="shape-rendering:geometricPrecision; fill-rule:evenodd;" width="7.2mm" height="7.1mm" viewBox="-3.95 -5.75 7.2 7.1">
  <title>BOYMOR02</title>
  <desc>Mooring buoy area, point symbol</desc>
  <metadata>
    <iho:S100SVG xmlns:iho="http://www.iho.int/SVGMetadata/5.2">
      <iho:Description iho:publisher="IHO" iho:creationDate="2022-07-05" iho:source="S52Preslib4.0" iho:format="S100SVG" iho:version="5.0"/>
    </iho:S100SVG>
  </metadata>
  <rect style="stroke:black;stroke-width:0.32;display:none;" fill="none" x="-3.95" y="-5.75" height="7.1" width="7.2"/>
  <rect style="stroke:blue;stroke-width:0.32;display:none;" fill="none" x="-3.95" y="-5.75" height="7.1" width="7.2"/>
  <circle style="fill:none;stroke:#768C97;" stroke-width="0.64"  cx="0" cy="0" r="0.6"/>
  <circle style="fill:none;stroke:#768C97;" stroke-width="0.64"  cx="-0.45" cy="-4.55" r="0.65"/>
  <path d=" M 0.6,0 L 2.65,0" style="stroke-linecap:round;stroke-linejoin:round;fill:none;stroke:#768C97;" stroke-width="0.64" />
  <path d=" M -0.65,0 L -3.45,0" style="stroke-linecap:round;stroke-linejoin:round;fill:none;stroke:#768C97;" stroke-width="0.64" />
  <path d=" M 2.1,0 L 2.1,-1.3" style="stroke-linecap:round;stroke-linejoin:round;fill:none;stroke:#768C97;" stroke-width="0.64" />
  <path d=" M -3,0 L -3,-1.3 L -2.95,-1.8 L -2.75,-2.4 L -2.45,-2.9 L -2.2,-3.15 L -1.83,-3.48 L -1.4,-3.68 L -0.98,-3.8 L -0.45,-3.88 L 0.02,-3.83 L 0.55,-3.65 L 1.07,-3.38 L 1.45,-3.03 L 1.8,-2.53 L 2,-2.03 L 2.1,-1.55 L 2.1,-1.3" style="stroke-linecap:round;stroke-linejoin:round;fill:none;stroke:#768C97;" stroke-width="0.64" />
  <path d=" M -2.2,-3.15 L -1.83,-2.6" style="stroke-linecap:round;stroke-linejoin:round;fill:none;stroke:#768C97;" stroke-width="0.64" />
  <path d=" M -1.38,-1.7 L -1.18,-0.88 L -1.13,-0.38 L -1.1,0" style="stroke-linecap:round;stroke-linejoin:round;fill:none;stroke:#768C97;" stroke-width="0.64" />
  <path d=" M -1.83,-2.6 L -1.38,-1.7" style="stroke-linecap:round;stroke-linejoin:round;fill:none;stroke:#768C97;" stroke-width="0.64" />
  <circle style="stroke:red;stroke-width:0.64;display:none;" fill="none" cx="0" cy="0" r="0.4"/>
</svg>
