<?xml version="1.0" encoding="UTF-8"?>

<svg xmlns="http://www.w3.org/2000/svg" version="1.2" baseProfile="tiny" xml:space="preserve" style="shape-rendering:geometricPrecision; fill-rule:evenodd;" width="5.71mm" height="3.46mm" viewBox="-5.23 -1.73 5.71 3.46">
  <title>SAFCON33</title>
  <desc>contour label</desc>
  <metadata>
    <iho:S100SVG xmlns:iho="http://www.iho.int/SVGMetadata/5.2">
      <iho:Description iho:publisher="IHB" iho:creationDate="2014-06-09" iho:source="S52Preslib4.0" iho:format="S100SVG" iho:version="0.1"/>
    </iho:S100SVG>
  </metadata>
  <rect style="stroke:black;stroke-width:0.32;display:none;" fill="none" x="-4.75" y="-1.25" height="2.5" width="1.25"/>
  <rect style="stroke:blue;stroke-width:0.32;display:none;" fill="none" x="-4.75" y="-1.25" height="2.5" width="4.75"/>
  <path d=" M -3.75,-0.16 L -4.5,-0.16" style="stroke-linecap:round;stroke-linejoin:round;fill:none;stroke:#C9EDFF;" stroke-width="0.96" />
  <path d=" M -3.75,-0.16 L -3.5,0.09 L -3.5,1 L -3.75,1.25 L -4.5,1.25 L -4.75,1" style="stroke-linecap:round;stroke-linejoin:round;fill:none;stroke:#C9EDFF;" stroke-width="0.96" />
  <path d=" M -4.47,-1.25 L -3.75,-1.25 L -3.5,-1 L -3.5,-0.41 L -3.75,-0.16" style="stroke-linecap:round;stroke-linejoin:round;fill:none;stroke:#C9EDFF;" stroke-width="0.96" />
  <path d=" M -4.72,-1 L -4.47,-1.25" style="stroke-linecap:round;stroke-linejoin:round;fill:none;stroke:#C9EDFF;" stroke-width="0.96" />
  <path d=" M -3.75,-0.16 L -4.5,-0.16" style="stroke-linecap:round;stroke-linejoin:round;fill:none;stroke:#000000;" stroke-width="0.32" />
  <path d=" M -3.75,-0.16 L -3.5,0.09 L -3.5,1 L -3.75,1.25 L -4.5,1.25 L -4.75,1" style="stroke-linecap:round;stroke-linejoin:round;fill:none;stroke:#000000;" stroke-width="0.32" />
  <path d=" M -4.47,-1.25 L -3.75,-1.25 L -3.5,-1 L -3.5,-0.41 L -3.75,-0.16" style="stroke-linecap:round;stroke-linejoin:round;fill:none;stroke:#000000;" stroke-width="0.32" />
  <path d=" M -4.72,-1 L -4.47,-1.25" style="stroke-linecap:round;stroke-linejoin:round;fill:none;stroke:#000000;" stroke-width="0.32" />
  <circle style="stroke:red;stroke-width:0.64;display:none;" fill="none" cx="0" cy="0" r="1"/>
</svg>
