<?xml version="1.0" encoding="UTF-8"?>

<svg xmlns="http://www.w3.org/2000/svg" version="1.2" baseProfile="tiny" xml:space="preserve" style="shape-rendering:geometricPrecision; fill-rule:evenodd;" width="5.97mm" height="5.23mm" viewBox="-2.94 -4.54 5.97 5.23">
  <title>BOYSPH12</title>
  <desc>spherical buoy, special purpose, yellow, paper-chart</desc>
  <metadata>
    <iho:S100SVG xmlns:iho="http://www.iho.int/SVGMetadata/5.2">
      <iho:Description iho:publisher="IHB" iho:creationDate="2023-01-23" iho:source="7Cs" iho:format="S100SVG" iho:version="0.1"/>
    </iho:S100SVG>
  </metadata>
  <rect style="stroke:black;stroke-width:0.32;display:none;" fill="none" x="-2.78" y="-4.38" height="4.91" width="5.65"/>
  <rect style="stroke:blue;stroke-width:0.32;display:none;" fill="none" x="-2.78" y="-4.38" height="4.91" width="5.65"/>
  <path d=" M -2.19,0 L -2.47,-0.69 L -2.56,-1.25 L -2.63,-1.85 L -2.5,-2.5 L -2.31,-2.97 L -1.97,-3.41 L -1.59,-3.79 L -1.13,-4.1 L -0.69,-4.25 L -0.16,-4.38 L 0.41,-4.38 L 0.97,-4.25 L 1.59,-3.97 L 2,-3.66 L 2.28,-3.25 L 2.62,-2.72 L 2.81,-2.19 L 2.84,-1.6 L 2.78,-0.88 L 2.56,-0.38 L 2.37,0 Z" style="fill:#8B8B1F;"/>
  <circle style="fill:none;stroke:#000000;" stroke-width="0.32"  cx="0" cy="0" r="0.53"/>
  <path d=" M 0.56,0 L 2.87,0" style="stroke-linecap:round;stroke-linejoin:round;fill:none;stroke:#000000;" stroke-width="0.32" />
  <path d=" M -2.19,0 L -2.47,-0.69 L -2.56,-1.25 L -2.63,-1.85 L -2.5,-2.5 L -2.31,-2.97 L -1.97,-3.41 L -1.59,-3.79 L -1.13,-4.1 L -0.69,-4.25 L -0.16,-4.38 L 0.41,-4.38 L 0.97,-4.25 L 1.59,-3.97 L 2,-3.66 L 2.28,-3.25 L 2.62,-2.72 L 2.81,-2.19 L 2.84,-1.6 L 2.78,-0.88 L 2.56,-0.38 L 2.37,0" style="stroke-linecap:round;stroke-linejoin:round;fill:none;stroke:#000000;" stroke-width="0.32" />
  <path d=" M -2.78,0 L -0.53,0" style="stroke-linecap:round;stroke-linejoin:round;fill:none;stroke:#000000;" stroke-width="0.32" />
  <circle style="fill:#000000;" cx="0" cy="0" r="0.45"/>
  <circle style="stroke:red;stroke-width:0.64;display:none;" fill="none" cx="0" cy="0" r="0.2"/>
</svg>
