<?xml version="1.0" encoding="UTF-8"?>

<svg xmlns="http://www.w3.org/2000/svg" version="1.2" baseProfile="tiny" xml:space="preserve" style="shape-rendering:geometricPrecision; fill-rule:evenodd;" width="8.46mm" height="3.46mm" viewBox="-7.98 -1.73 8.46 3.46">
  <title>SAFCON46</title>
  <desc>contour label</desc>
  <metadata>
    <iho:S100SVG xmlns:iho="http://www.iho.int/SVGMetadata/5.2">
      <iho:Description iho:publisher="IHB" iho:creationDate="2014-06-09" iho:source="S52Preslib4.0" iho:format="S100SVG" iho:version="0.1"/>
    </iho:S100SVG>
  </metadata>
  <rect style="stroke:black;stroke-width:0.32;display:none;" fill="none" x="-7.5" y="-1.25" height="2.5" width="1.25"/>
  <rect style="stroke:blue;stroke-width:0.32;display:none;" fill="none" x="-7.5" y="-1.25" height="2.5" width="7.5"/>
  <path d=" M -6.48,-1.28 L -7.23,-1.28 L -7.48,-1.03 L -7.48,0.97 L -7.23,1.22 L -6.48,1.22 L -6.23,0.97 L -6.23,0 L -6.48,-0.25 L -7.23,-0.25 L -7.48,0" style="stroke-linecap:round;stroke-linejoin:round;fill:none;stroke:#000000;" stroke-width="0.96" />
  <path d=" M -6.48,-1.28 L -6.36,-1.16" style="stroke-linecap:round;stroke-linejoin:round;fill:none;stroke:#000000;" stroke-width="0.96" />
  <path d=" M -6.48,-1.28 L -7.23,-1.28 L -7.48,-1.03 L -7.48,0.97 L -7.23,1.22 L -6.48,1.22 L -6.23,0.97 L -6.23,0 L -6.48,-0.25 L -7.23,-0.25 L -7.48,0" style="stroke-linecap:round;stroke-linejoin:round;fill:none;stroke:#8CA6B3;" stroke-width="0.32" />
  <path d=" M -6.48,-1.28 L -6.36,-1.16" style="stroke-linecap:round;stroke-linejoin:round;fill:none;stroke:#8CA6B3;" stroke-width="0.32" />
  <circle style="stroke:red;stroke-width:0.64;display:none;" fill="none" cx="0" cy="0" r="1"/>
</svg>
