<?xml version="1.0" encoding="utf-8" standalone="yes"?>

<svg xmlns="http://www.w3.org/2000/svg" version="1.2" baseProfile="tiny" xml:space="preserve" style="shape-rendering:geometricPrecision; fill-rule:evenodd;" width="5.75mm" height="3.8mm" viewBox="-0.5 -1.3 5.75 3.8">
  <title>SAFCON53</title>
  <desc>pattern of symbol</desc>
  <metadata>
    <iho:S100SVG xmlns:iho="http://www.iho.int/SVGMetadata/5.2">
      <iho:Description iho:publisher="IHO" iho:creationDate="2024-02-21" iho:source="S52Preslib4.0" iho:format="S100SVG" iho:version="1.0" />
    </iho:S100SVG>
  </metadata>
  <circle style="stroke:red;stroke-width:0.64;display:none;" fill="none" cx="0.00" cy="0.00" r="0.1" />
  <rect style="stroke:black;stroke-width:0.32;display:none;" fill="none" x="-0.5" y="-1.3" height="3.8" width="5.75" />
  <rect style="stroke:blue;stroke-width:0.32;display:none;" fill="none" x="-0.5" y="-1.3" height="3.8" width="5.75" />
  <path d=" M 4.34,0.48 L 3.65,0.48" style="stroke-linecap:round;stroke-linejoin:round;fill:none;stroke:#000000;" stroke-width="0.96"  />
  <path d=" M 4.33,0.48 L 4.58,0.72 L 4.58,1.62 L 4.33,1.89 L 3.59,1.89 L 3.32,1.57" style="stroke-linecap:round;stroke-linejoin:round;fill:none;stroke:#000000;" stroke-width="0.96"  />
  <path d=" M 3.66,-0.6 L 4.38,-0.6 L 4.61,-0.36 L 4.61,0.24 L 4.38,0.48" style="stroke-linecap:round;stroke-linejoin:round;fill:none;stroke:#000000;" stroke-width="0.96"  />
  <path d=" M 3.36,-0.32 L 3.7,-0.62" style="stroke-linecap:round;stroke-linejoin:round;fill:none;stroke:#000000;" stroke-width="0.96"  />
  <path d=" M 4.34,0.48 L 3.74,0.48" style="stroke-linecap:round;stroke-linejoin:round;fill:none;stroke:#8CA6B3;" stroke-width="0.32"  />
  <path d=" M 4.33,0.48 L 4.58,0.72 L 4.58,1.62 L 4.33,1.89 L 3.59,1.89 L 3.35,1.62" style="stroke-linecap:round;stroke-linejoin:round;fill:none;stroke:#8CA6B3;" stroke-width="0.32"  />
  <path d=" M 3.66,-0.6 L 4.38,-0.6 L 4.61,-0.36 L 4.61,0.24 L 4.34,0.48" style="stroke-linecap:round;stroke-linejoin:round;fill:none;stroke:#8CA6B3;" stroke-width="0.32"  />
  <path d=" M 3.41,-0.37 L 3.67,-0.61" style="stroke-linecap:round;stroke-linejoin:round;fill:none;stroke:#8CA6B3;" stroke-width="0.32"  />
</svg>
