<?xml version="1.0" encoding="UTF-8"?>

<svg xmlns="http://www.w3.org/2000/svg" version="1.2" baseProfile="tiny" xml:space="preserve" style="shape-rendering:geometricPrecision; fill-rule:evenodd;" width="6.22mm" height="4.42mm" viewBox="-3.13 -2.26 6.22 4.42">
  <title>WRECKS05</title>
  <desc>dangerous wreck, depth unknown</desc>
  <metadata>
    <iho:S100SVG xmlns:iho="http://www.iho.int/SVGMetadata/5.2">
      <iho:Description iho:publisher="IHO" iho:creationDate="2023-05-01" iho:source="S52Preslib4.0" iho:format="S100SVG" iho:version="1.0"/>
    </iho:S100SVG>
  </metadata>
  <rect style="stroke:black;stroke-width:0.32;display:none;" fill="none" x="-2.97" y="-2.1" height="4.1" width="5.9"/>
  <rect style="stroke:blue;stroke-width:0.32;display:none;" fill="none" x="-2.97" y="-2.1" height="4.1" width="5.9"/>
  <path d=" M -2.97,-0.5 L -2.38,-1.25 L -1.5,-1.75 L -0.63,-2 L 0.5,-2.1 L 1.5,-1.75 L 2.31,-1.25 L 2.9,-0.5 L 2.9,0.5 L 2.37,1.09 L 1.5,1.65 L 0.5,2 L -0.5,2 L -1.5,1.65 L -2.25,1.15 L -2.97,0.5 L -2.97,-0.5 Z" style="fill:#1E4165;"/>
  <path d=" M -1.5,-1 L -1.5,1" style="stroke-linecap:round;stroke-linejoin:round;fill:none;stroke:#6B7F89;" stroke-width="0.32" />
  <path d=" M 1.5,-1 L 1.5,1" style="stroke-linecap:round;stroke-linejoin:round;fill:none;stroke:#6B7F89;" stroke-width="0.32" />
  <path d=" M -2.5,0 L 2.5,0" style="stroke-linecap:round;stroke-linejoin:round;fill:none;stroke:#6B7F89;" stroke-width="0.32" />
  <path d=" M 0,-1.5 L 0,1.5" style="stroke-linecap:round;stroke-linejoin:round;fill:none;stroke:#6B7F89;" stroke-width="0.32" />
  <circle style="fill:#6B7F89;" cx="-2.97" cy="-0.5" r="0.16"/>
  <circle style="fill:#6B7F89;" cx="-2.38" cy="-1.25" r="0.16"/>
  <circle style="fill:#6B7F89;" cx="-1.5" cy="-1.75" r="0.16"/>
  <circle style="fill:#6B7F89;" cx="-0.63" cy="-2" r="0.16"/>
  <circle style="fill:#6B7F89;" cx="0.5" cy="-2.1" r="0.16"/>
  <circle style="fill:#6B7F89;" cx="1.5" cy="-1.75" r="0.16"/>
  <circle style="fill:#6B7F89;" cx="2.31" cy="-1.25" r="0.16"/>
  <circle style="fill:#6B7F89;" cx="2.9" cy="-0.5" r="0.16"/>
  <circle style="fill:#6B7F89;" cx="-2.97" cy="0.5" r="0.16"/>
  <circle style="fill:#6B7F89;" cx="-2.25" cy="1.15" r="0.16"/>
  <circle style="fill:#6B7F89;" cx="-1.5" cy="1.65" r="0.16"/>
  <circle style="fill:#6B7F89;" cx="-0.5" cy="2" r="0.16"/>
  <circle style="fill:#6B7F89;" cx="0.5" cy="2" r="0.16"/>
  <circle style="fill:#6B7F89;" cx="1.5" cy="1.65" r="0.16"/>
  <circle style="fill:#6B7F89;" cx="2.37" cy="1.09" r="0.16"/>
  <circle style="fill:#6B7F89;" cx="2.93" cy="0.43" r="0.16"/>
  <circle style="stroke:red;stroke-width:0.64;display:none;" fill="none" cx="0" cy="0" r="1"/>
</svg>
