<?xml version="1.0" encoding="UTF-8"?>

<svg xmlns="http://www.w3.org/2000/svg" version="1.2" baseProfile="tiny" xml:space="preserve" style="shape-rendering:geometricPrecision; fill-rule:evenodd;" width="7.04mm" height="7.04mm" viewBox="-3.68 -4.24 7.04 7.04">
  <title>QUARRY01</title>
  <desc>quarry</desc>
  <metadata>
    <iho:S100SVG xmlns:iho="http://www.iho.int/SVGMetadata/5.2">
      <iho:Description iho:publisher="IHB" iho:creationDate="2014-06-09" iho:source="S52Preslib4.0" iho:format="S100SVG" iho:version="0.1"/>
    </iho:S100SVG>
  </metadata>
  <rect style="stroke:black;stroke-width:0.32;display:none;" fill="none" x="-3.52" y="-4.08" height="6.72" width="6.72"/>
  <rect style="stroke:blue;stroke-width:0.32;display:none;" fill="none" x="-3.52" y="-4.08" height="6.72" width="6.72"/>
  <path d=" M -0.85,-1.95 L -2.3,-0.5 L -2.55,-0.75 L -2.55,-1.85 L -1.65,-2.75 L -0.85,-1.95 Z" style="fill:#2F1F0A;"/>
  <path d=" M 0.8,-1.9 L 1.6,-2.75 L 2.5,-1.85 L 2.5,-0.8 L 2.2,-0.5 L 0.8,-1.9 Z" style="fill:#2F1F0A;"/>
  <path d=" M -1.35,-1.35 L 1.45,1.45" style="stroke-linecap:round;stroke-linejoin:round;fill:none;stroke:#2F1F0A;" stroke-width="0.64" />
  <path d=" M 1.35,-1.35 L -1.45,1.45" style="stroke-linecap:round;stroke-linejoin:round;fill:none;stroke:#2F1F0A;" stroke-width="0.64" />
  <path d=" M -1.65,-2.75 L -0.85,-1.95 L -2.3,-0.5 L -2.55,-0.75 L -2.55,-1.85 L -1.65,-2.75" style="stroke-linecap:round;stroke-linejoin:round;fill:none;stroke:#2F1F0A;" stroke-width="0.32" />
  <path d=" M 1.6,-2.75 L 2.5,-1.85 L 2.5,-0.8 L 2.2,-0.5 L 0.8,-1.9 L 1.6,-2.75" style="stroke-linecap:round;stroke-linejoin:round;fill:none;stroke:#2F1F0A;" stroke-width="0.32" />
  <circle style="fill:none;stroke:#2F1F0A;" stroke-width="0.32"  cx="-0.16" cy="-0.72" r="3.36"/>
  <circle style="stroke:red;stroke-width:0.64;display:none;" fill="none" cx="0" cy="0" r="1"/>
</svg>
