<?xml version="1.0" encoding="utf-8" standalone="yes"?>

<svg xmlns="http://www.w3.org/2000/svg" version="1.2" baseProfile="tiny" xml:space="preserve" style="shape-rendering:geometricPrecision; fill-rule:evenodd;" width="5.85mm" height="3.80mm" viewBox="-0.5 -1.3 5.85 3.80">
  <title>SAFCON58</title>
  <desc>pattern of symbol</desc>
  <metadata>
    <iho:S100SVG xmlns:iho="http://www.iho.int/SVGMetadata/5.2">
      <iho:Description iho:publisher="IHO" iho:creationDate="2024-02-21" iho:source="S52Preslib4.0" iho:format="S100SVG" iho:version="1.0" />
    </iho:S100SVG>
  </metadata>
  <circle style="stroke:red;stroke-width:0.64;display:none;" fill="none" cx="0.00" cy="0.00" r="0.1" />
  <rect style="stroke:black;stroke-width:0.32;display:none;" fill="none" x="-0.5" y="-1.3" height="3.80" width="5.85" />
  <rect style="stroke:blue;stroke-width:0.32;display:none;" fill="none" x="-0.5" y="-1.3" height="3.80" width="5.85" />
  <path d=" M 4.47,-0.61 L 3.72,-0.61 L 3.48,-0.37 L 3.48,0.38 L 3.72,0.62 L 4.47,0.62 L 4.7,0.38 L 4.7,-0.37 L 4.47,-0.61" style="stroke-linecap:round;stroke-linejoin:round;fill:none;stroke:#000000;" stroke-width="0.96"  />
  <path d=" M 3.72,0.62 L 3.48,0.86 L 3.48,1.61 L 3.72,1.85 L 4.47,1.85 L 4.7,1.61 L 4.7,0.86 L 4.47,0.62" style="stroke-linecap:round;stroke-linejoin:round;fill:none;stroke:#000000;" stroke-width="0.96"  />
  <path d=" M 4.47,-0.61 L 3.72,-0.61 L 3.48,-0.37 L 3.48,0.38 L 3.72,0.62 L 4.47,0.62 L 4.7,0.38 L 4.7,-0.37 L 4.47,-0.61" style="stroke-linecap:round;stroke-linejoin:round;fill:none;stroke:#364147;" stroke-width="0.32"  />
  <path d=" M 3.72,0.62 L 3.48,0.86 L 3.48,1.61 L 3.72,1.85 L 4.47,1.85 L 4.7,1.61 L 4.7,0.86 L 4.47,0.62" style="stroke-linecap:round;stroke-linejoin:round;fill:none;stroke:#364147;" stroke-width="0.32"  />
</svg>
