<?xml version="1.0" encoding="UTF-8"?>

<svg xmlns="http://www.w3.org/2000/svg" version="1.2" baseProfile="tiny" xml:space="preserve" style="shape-rendering:geometricPrecision; fill-rule:evenodd;" width="8.46mm" height="3.46mm" viewBox="-7.98 -1.73 8.46 3.46">
  <title>SAFCON43</title>
  <desc>contour label</desc>
  <metadata>
    <iho:S100SVG xmlns:iho="http://www.iho.int/SVGMetadata/5.2">
      <iho:Description iho:publisher="IHB" iho:creationDate="2014-06-09" iho:source="S52Preslib4.0" iho:format="S100SVG" iho:version="0.1"/>
    </iho:S100SVG>
  </metadata>
  <rect style="stroke:black;stroke-width:0.32;display:none;" fill="none" x="-7.5" y="-1.25" height="2.5" width="1.25"/>
  <rect style="stroke:blue;stroke-width:0.32;display:none;" fill="none" x="-7.5" y="-1.25" height="2.5" width="7.5"/>
  <path d=" M -6.5,-0.16 L -7.25,-0.16" style="stroke-linecap:round;stroke-linejoin:round;fill:none;stroke:#000000;" stroke-width="0.96" />
  <path d=" M -6.5,-0.16 L -6.25,0.09 L -6.25,1 L -6.5,1.25 L -7.25,1.25 L -7.5,1" style="stroke-linecap:round;stroke-linejoin:round;fill:none;stroke:#000000;" stroke-width="0.96" />
  <path d=" M -7.22,-1.25 L -6.5,-1.25 L -6.25,-1 L -6.25,-0.41 L -6.5,-0.16" style="stroke-linecap:round;stroke-linejoin:round;fill:none;stroke:#000000;" stroke-width="0.96" />
  <path d=" M -7.47,-1 L -7.22,-1.25" style="stroke-linecap:round;stroke-linejoin:round;fill:none;stroke:#000000;" stroke-width="0.96" />
  <path d=" M -6.5,-0.16 L -7.25,-0.16" style="stroke-linecap:round;stroke-linejoin:round;fill:none;stroke:#364147;" stroke-width="0.32" />
  <path d=" M -6.5,-0.16 L -6.25,0.09 L -6.25,1 L -6.5,1.25 L -7.25,1.25 L -7.5,1" style="stroke-linecap:round;stroke-linejoin:round;fill:none;stroke:#364147;" stroke-width="0.32" />
  <path d=" M -7.22,-1.25 L -6.5,-1.25 L -6.25,-1 L -6.25,-0.41 L -6.5,-0.16" style="stroke-linecap:round;stroke-linejoin:round;fill:none;stroke:#364147;" stroke-width="0.32" />
  <path d=" M -7.47,-1 L -7.22,-1.25" style="stroke-linecap:round;stroke-linejoin:round;fill:none;stroke:#364147;" stroke-width="0.32" />
  <circle style="stroke:red;stroke-width:0.64;display:none;" fill="none" cx="0" cy="0" r="1"/>
</svg>
